<svg xmlns="http://www.w3.org/2000/svg" viewBox="0 0 460 400" role="img" aria-label="Elara Nova by Evelyn Patiño"><ellipse cx="230.0" cy="185" rx="200" ry="150" fill="none" stroke="#4A2D57" stroke-width="5"/><ellipse cx="230.0" cy="185" rx="186" ry="137" fill="none" stroke="#E85D9F" stroke-width="2.5" stroke-dasharray="1 10" stroke-linecap="round"/><path d="M148.8166610026488 118.34075242233384Q147.0930555551106 113.75603997102169 147.61206967364274 109.58671948144976Q148.1310837921749 105.41739899187785 150.78428750338327 102.16789086497154Q153.43749121459166 98.91838273806523 158.13827233555728 97.1511417095767Q161.79443542964165 95.77662090964117 165.22697851932065 96.00961219166015Q168.65952160899965 96.24260347367914 171.18250225226893 97.84420944072863Q173.70548289553824 99.44581540777813 174.7091012573959 102.11539480980798Q175.75635520020393 104.90104288149132 174.56774963455865 106.67262771133072Q173.3791440689134 108.44421254117012 170.18725565344292 109.64419101730431L158.00004533982835 114.2259270170894Q158.5673078921827 115.73481972258455 160.12791419420864 116.27413870989812Q161.68852049623456 116.8134576972117 164.53220290274464 115.74438596392852Q165.98306127341303 115.19894120204934 167.121710519812 114.43968703269957Q168.260359766211 113.6804328633498 169.4679522426743 112.92837807093822Q170.67554471913763 112.17632327852665 172.30050609428622 111.56542514522198Q174.62187948735567 110.69271352621529 176.7525792213931 111.77942951642291Q178.88327895543048 112.86614550663055 179.97416847918882 115.76786224796734Q181.26141811722368 119.19188800274478 178.47032794588668 122.42699737577468Q175.67923777454968 125.66210674880458 169.99187296152954 127.80025021537095Q165.98750385848476 129.3056777581575 161.8873462586377 129.0587270415832Q157.78718865879065 128.81177632500896 154.30554319257743 126.24584377570126Q150.82389772636418 123.67991122639356 148.8166610026488 118.34075242233384ZM166.6816204960791 108.77631191083003Q167.55213551848013 108.44904505370253 166.9565147776941 107.74565331850405Q166.4189283717348 107.02044379283043 164.93097481807257 106.58628457993274Q163.44302126441036 106.15212536703503 161.2377165409944 106.98120140509138Q158.684205808618 107.94118418599874 157.85100562887135 109.51291904292282Q157.0178054491247 111.0846538998469 157.45416125862806 112.24534059638162Z" fill="#E85D9F"/><path d="M194.83895249507103 120.56856958434919Q191.86355498777837 121.18212779152823 190.0502947364452 119.91012454430941Q188.23703448511208 118.63812129709058 187.74869223858184 116.26994777087808L180.48616652095245 81.05095686823051Q179.9477378901627 78.43989374958596 181.07857115596 76.40252629991807Q182.20940442175728 74.36515885025017 185.1848019290499 73.75160064307114Q187.8565874458025 73.20065041621649 189.67079048824382 74.63072045673779Q191.4849935306852 76.06079049725909 191.99837896934517 78.55040881968762L199.2859478791043 113.89084451855122Q199.77429012563456 116.25901804476372 198.6425140687291 118.13831870112914Q197.5107380118236 120.01761935749455 194.83895249507103 120.56856958434919Z" fill="#E85D9F"/><path d="M216.30594649909477 117.42537910763104Q211.72212681235214 117.62118789045424 209.04562859190963 115.25325920150097Q206.3691303714671 112.8853305125477 206.17861371790937 108.42539784436568Q205.98809706435168 103.96546517618366 208.8753884092421 101.82529002220191Q211.76267975413253 99.68511486822017 216.4084429501555 99.48666002076422Q219.13395735848894 99.37023317692339 221.3798000803764 99.64663590582637Q223.6256428022639 99.92303863472937 225.45111128235297 100.5276813624631L225.6369418101939 100.51974316856486L225.5972508407027 99.59059052936027Q225.53639135414954 98.16588981591323 224.44762982384228 97.37463553938579Q223.358868293535 96.58338126285835 221.7509831168798 96.71412245259005Q220.20239538487215 96.78027406840869 219.12632216636504 97.01241072732266Q218.05024894785794 97.24454738623663 216.45824015899922 97.74694963165017Q213.51670448913748 98.61728284538565 211.31163675946834 97.84268597760747Q209.10656902979918 97.0680891098293 208.19281475921264 94.56280406956246Q207.33571186864089 91.93098594610225 208.3429874066966 90.08831804590034Q209.35026294475233 88.24565014569842 211.5378922447194 87.15929567043467Q213.41845006291769 86.14811502761495 215.776814523882 85.42680644645117Q218.1351789848463 84.7054978652874 220.92263690246008 84.58642495681383Q229.03723661818015 84.23979048992412 233.01478754309832 88.01047035430966Q236.9923384680165 91.7811502186952 237.38660209829564 101.01073310146077L237.79674211637126 110.61197703990817Q237.90523076631382 113.1516609204007 236.42808677939033 114.89028728678761Q234.95094279246683 116.62891365317452 232.22542838413335 116.74534049701533Q229.25213993867868 116.87235159938714 227.72502372550736 115.26205936768841Q226.19790751233603 113.65176713598969 226.09471099165893 111.23597027405776L226.0338515051058 109.81126956061073L224.79498131949967 109.86419085326565Q224.86377899995105 111.4747220945536 224.3467594068723 113.17233445913294Q223.82973981379354 114.86994682371228 222.05003545341395 116.06298889742379Q220.27033109303434 117.2560309711353 216.30594649909477 117.42537910763104ZM216.34589343732648 103.83328992891661Q216.39087653608314 104.88632958668181 217.1836928545162 105.28685834373462Q217.97650917294925 105.68738710078745 220.57813656272208 105.57625238621212Q222.93198991537372 105.47570193016777 223.84262010214908 105.00240639571444Q224.75325028892445 104.52911086126112 224.70826719016776 103.4760712034959Q224.66593015604383 102.48497505501102 223.7195780967264 102.12203321418022Q222.77322603740896 101.75909137334942 220.41937268475732 101.85964182939377Q217.8177452949845 101.9707765439691 217.06065084909352 102.40648516220041Q216.30355640320255 102.84219378043173 216.34589343732648 103.83328992891661Z" fill="#E85D9F"/><path d="M251.10641514540356 118.16686380407826Q248.22790958888538 117.71343050016901 246.89602777475938 115.80898548043218Q245.56414596063337 113.90454046069536 245.9596941619159 111.39350369862632L249.1240797721762 91.30520960207403Q249.53892300766765 88.67168324185529 251.40624202109075 87.17704191293768Q253.27356103451385 85.68240058402009 256.152066591032 86.13583388792935Q259.0305721475502 86.58926719183859 260.28673788694465 88.57593189308324Q261.5429036263391 90.5625965943279 261.1473554250566 93.07363335639694L260.9447575658631 94.3597741369689L262.10840874828534 94.54307696195347Q262.86470635112073 91.33569267940399 265.3975346993669 89.60068012661921Q267.930363047613 87.86566757383443 270.9313582022809 88.33839591195259Q273.93235335694874 88.81112425007075 275.3884046174485 90.92342245979327Q276.8444558779483 93.03572066951578 276.3620800227257 96.09796062325852Q275.90864671881644 98.97646617977668 273.95596411355734 100.61457198927695Q272.0032815082983 102.25267779877724 269.4309999471544 101.84748208039025Q267.28743197953446 101.50981898173444 266.00736323349884 100.27256314504471Q264.72729448746327 99.03530730835499 264.2658470739378 97.58179904055922Q262.34460357196025 97.02809929691733 261.3552550557781 97.53128068918875Q260.365906539596 98.03446208146016 260.06683350935793 99.93305085278065L257.9636747805874 113.28441705109894Q257.5681265793049 115.79545381316798 255.77652364061328 117.20787546057775Q253.9849207019217 118.62029710798751 251.10641514540356 118.16686380407826Z" fill="#E85D9F"/><path d="M285.0143385170957 125.75545747746663Q280.71268987439095 124.15997543284304 279.162701538076 120.93999637122047Q277.6127132017611 117.72001730959792 279.1650741100435 113.53462944102031Q280.71743501832594 109.34924157244271 284.2084120629218 108.4949112650647Q287.6993891075177 107.6405809576867 292.059168137286 109.25762357048087Q294.61690516808346 110.20628856998678 296.58023569334875 111.33125134650946Q298.543566218614 112.45621412303214 299.9921811935813 113.72090485767858L300.16657235477203 113.78558656219035L300.4899808773308 112.91363075623667Q300.9858739452544 111.57663185377439 300.28872503547655 110.42534196951607Q299.5915761256987 109.27405208525775 298.058625493875 108.77160769988602Q296.6053658172856 108.23259349562129 295.5234023391612 108.02967471382672Q294.44143886103683 107.82675593203214 292.7791248201897 107.67309386904186Q289.73013942309086 107.33575124161652 287.99742383025387 105.76730593675582Q286.2647082374169 104.19886063189512 286.39299650058456 101.53522737607076Q286.62253628715695 98.77689391428984 288.26507453771666 97.4684226324314Q289.90761278827637 96.15995135057295 292.34527581329456 96.0060456116969Q294.47072633482435 95.8024674190315 296.924351918478 96.0512454229634Q299.3779775021316 96.3000234268953 301.9938449199926 97.2702489945718Q309.6089256253213 100.09468342491897 311.81484835089896 105.1119379459474Q314.0207710764766 110.12919246697582 310.80824641905883 118.79062013944892L307.4663583526175 127.8008301343035Q306.5823750576233 130.18417600391018 304.546980040428 131.21468225036205Q302.51158502323267 132.24518849681394 299.9538479924352 131.29652349730802Q297.1635894133835 130.26161622511975 296.3796606579953 128.1854224223943Q295.59573190260716 126.10922861966885 296.4365940612601 123.84214352418931L296.93248712918364 122.50514462172703L295.7698793879121 122.07393325831524Q295.20930461547675 123.58532332196827 294.07493059776687 124.95001837506427Q292.940556580057 126.31471342816027 290.83761993461087 126.7250236342723Q288.7346832891647 127.13533384038433 285.0143385170957 125.75545747746663ZM290.3174068170905 113.24050839224897Q289.95087715819045 114.22872497232979 290.526583019291 114.90514478390719Q291.10228888039165 115.58156459548461 293.54376513706194 116.48710845864935Q295.7527198454779 117.30641004913173 296.7755996286257 117.22290586224551Q297.7984794117735 117.13940167535931 298.1650090706735 116.15118509527849Q298.50997816140296 115.22109890226125 297.7781660485581 114.51984286378915Q297.0463539357132 113.81858682531706 294.8373992272973 112.99928523483467Q292.395922970627 112.09374137166994 291.5291494392235 112.20208178545083Q290.6623759078199 112.31042219923172 290.3174068170905 113.24050839224897Z" fill="#E85D9F"/><path d="M167.43944214109652 289.69817030554367Q164.8432510501219 288.86044969630456 163.78417223725847 286.7922983314031Q162.72509342439503 284.7241469665016 163.46761850985698 282.4229775904105L169.76956218390575 262.8925400651241Q170.569204583634 260.41435766010284 172.596447195959 259.1792093326645Q174.62368980828398 257.94406100522616 177.39689392818872 258.83889892873157Q180.11109370511673 259.7146977474816 180.97506389864984 261.8827622079362Q181.83903409218294 264.0508266683908 181.00131348294386 266.64701775936544L180.04935824517213 269.5972349082002L181.11143641875265 269.93993879379804Q182.1966653898124 266.5766912441264 184.034544877764 265.0198495733818Q185.87242436571563 263.46300790263723 188.03663035992372 263.21669628164904Q190.20083635413178 262.97038466066084 192.08897532938607 263.5796360128347Q196.63230973859166 265.0456470790032 197.69979577182613 269.00579588540546Q198.76728180506058 272.96594469180775 196.82529312000628 278.98438767543075L192.67476828332155 291.8473344443505Q191.93224319785963 294.14850382044165 189.89359400444653 295.21710218568285Q187.85494481103342 296.285700550924 185.25875372005876 295.4479799416849Q182.60355828610744 294.5912202276903 181.544479473244 292.5230688627888Q180.48540066038058 290.4549174978874 181.22792574584253 288.15374812179624L184.5978472875544 277.709979414921Q185.28325505875003 275.58582306776 184.86747852367333 274.14870829402764Q184.45170198859662 272.71159352029537 182.9175890712025 272.21657679665407Q181.14745878190163 271.6454036539911 179.9320398470967 272.68647128528005Q178.71662091229172 273.72753891656896 178.06929135060696 275.7336865777766L174.73744801840593 286.05944659869846Q173.99492293294398 288.3606159747896 172.01527808250756 289.4482534447862Q170.03563323207115 290.5358909147828 167.43944214109652 289.69817030554367Z" fill="#9A66D9"/><path d="M213.36521861098507 300.3355289352681Q206.14842480960468 299.60176928227696 202.29739170436488 294.87900462348364Q198.4463585991251 290.15623996469037 199.24283275237184 282.322626180286Q199.7320058543659 277.5114303126991 202.07584535155092 274.07287881367574Q204.41968484873593 270.63432731465247 208.17649332698016 268.9285887479922Q211.93330180522437 267.22285018133186 216.6828156745089 267.7057518333003Q221.987467528515 268.24509653549893 225.29324785589517 270.6689161300864Q228.59902818327532 273.0927357246739 229.9869495833853 276.91070995024387Q231.37487098349527 280.72868417581384 230.88569788150122 285.5398800434008Q230.08922372825447 293.37349382780513 225.73655105927554 297.2621556331983Q221.38387839029662 301.1508174385915 213.36521861098507 300.3355289352681ZM206.68960520079162 282.0203347621875Q206.4951902499991 283.9324767095618 208.32893907205383 284.8979166391342Q210.16268789410856 285.8633565687067 214.7888377667883 286.3337153206241Q219.41498763946802 286.8040740725414 221.40552271216188 286.227464044554Q223.39605778485574 285.65085401656654 223.59047273564823 283.7387120691923Q223.7786162364152 281.88825212012034 221.94173168934768 280.9536531896991Q220.10484714228016 280.0190542592778 215.47869726960045 279.54869550736043Q210.8525473969207 279.0783367554431 208.86514804923962 279.6241057842793Q206.87774870155855 280.1698748131156 206.68960520079162 282.0203347621875Z" fill="#9A66D9"/><path d="M249.95279454035776 299.87084892537416Q245.9439732118169 300.2834644314281 242.8657398219257 298.23185062825786Q239.7875064320345 296.1802368250876 237.37866328758872 290.9433474138572L231.05907528243435 277.38312221494886Q229.78663160506386 274.7093512659108 230.56303410800035 272.2609917838425Q231.33943661093684 269.81263230177416 234.0512951451491 268.91023367011513Q236.46113073879752 268.1012488670532 238.4501078791577 268.95609793860007Q240.4390850195179 269.81094701014695 241.49476651972086 272.1953908803459L247.75902828145232 285.82363818440183Q248.8763839559405 288.2017341237384 250.261315215173 289.2434108524794Q251.6462464744055 290.2850875812205 253.43299239433912 289.477907912497Q255.09004203483988 288.621749931213 255.08235523356257 287.0331886597834Q255.07466843228528 285.44462738835375 253.99540034297132 283.4365764947286Q253.05852439481495 281.6008522622345 251.68538643013795 280.3709790452066Q250.31224846546098 279.1411058281786 249.17311133620024 277.7624925391307Q248.0339742069395 276.3838792500827 247.8054486958942 274.16360897581393Q247.475356291051 270.9565519129813 249.35417716916677 268.9245080876773Q251.23299804728254 266.8924642623732 254.6377734946957 266.6666764135134Q257.54280761696447 266.4299978372673 259.5961666331176 268.213133488524Q261.6495256492707 269.99626913978074 261.9605742615268 273.01830367975765Q262.13196839481077 274.6835063854592 261.773686682977 276.6525371660631Q261.41540497114323 278.62156794666697 260.9528187033261 280.7883171118513L259.28569102057486 288.8131803062867Q258.61630077512945 291.99845591434683 257.6453538530436 294.3733479275744Q256.67440693095784 296.74823994080197 254.91712926707413 298.1444982306665Q253.15985160319042 299.540756520531 249.95279454035776 299.87084892537416Z" fill="#9A66D9"/><path d="M277.6900956349827 294.49178062839206Q273.32277704903925 295.897580176291 270.11364592427424 294.3252550114271Q266.90451479950923 292.7529298465631 265.5367098339859 288.5036468980776Q264.1689048684626 284.25436394959206 266.38434820384873 281.42441486388515Q268.5997915392348 278.59446577817823 273.0261279439072 277.1696689390915Q275.6229119679817 276.33378812682724 277.8615371893514 276.00399255643936Q280.1001624107211 275.6741969860515 282.02064935692715 275.7724715476233L282.19770281311406 275.7154796740598L281.9127434452967 274.83021239312535Q281.4758057479768 273.4728025623591 280.21603939854873 272.9990159597111Q278.9562730491207 272.52522935706304 277.4408070533554 273.0781767466754Q275.9653615851313 273.55310902637103 274.9895416309379 274.06261507834483Q274.0137216767444 274.57212113031864 272.6122394281061 275.4791754323048Q270.00735162336963 277.0992592340679 267.6757658912263 276.93791496343624Q265.34418015908295 276.7765706928045 263.79805957690564 274.60380491035863Q262.27296223108164 272.294006199267 262.75485261439167 270.25003686034006Q263.2367429977017 268.20606752141316 265.0574278129393 266.5778799389881Q266.6020208257199 265.10369663123106 268.68423393490684 263.7821227332102Q270.76644704409375 262.46054883518934 273.4222488868972 261.6056707317373Q281.1535831403917 259.1170255861324 285.98950698264986 261.69632366737056Q290.82543082490804 264.2756217486087 293.65602721189373 273.0692767392246L296.60060734600637 282.2170386422143Q297.37949628470716 284.6367692101019 296.41697767855425 286.7051825954795Q295.45445907240133 288.7735959808572 292.8576750483268 289.6094767931214Q290.02481974933653 290.521346770137 288.1249741471346 289.3743020073688Q286.22512854493266 288.22725724460054 285.4842341886075 285.92556231417086L285.04729649128757 284.5681524834047L283.8669401167083 284.9480983071611Q284.3608696875917 286.48256159411426 284.31312727173776 288.25651696608065Q284.26538485588384 290.03047233804705 282.8663104447602 291.6532131652092Q281.4672360336365 293.2759539923714 277.6900956349827 294.49178062839206ZM274.119867052139 281.37690541487035Q274.442821002332 282.3802083332628 275.31352477475883 282.5558669245178Q276.1842285471857 282.7315255157727 278.6629769338022 281.9336392858841Q280.9056540455029 281.2117422207468 281.65794028812263 280.5136581218267Q282.41022653074236 279.8155740229066 282.0872725805493 278.8122711045142Q281.78331592154416 277.86798600485076 280.77456624788886 277.7693295509298Q279.7658165742335 277.6706730970089 277.5231394625328 278.39257016214617Q275.0443910759163 279.1904563920348 274.43015073452506 279.81153835362085Q273.81591039313383 280.4326203152069 274.119867052139 281.37690541487035Z" fill="#9A66D9"/><g transform="translate(191.1,145.7) scale(0.3889)"><path d="M 100 168 C 48 128 28 96 28 72 C 28 44 48 30 68 30 C 84 30 96 39 100 51 C 104 39 116 30 132 30 C 152 30 172 44 172 72 C 172 96 152 128 100 168 Z" fill="#E85D9F"/></g><path d="M 170.0 168 Q 173.3 175.7 181.0 179 Q 173.3 182.3 170.0 190 Q 166.7 182.3 159.0 179 Q 166.7 175.7 170.0 168 Z" fill="#9A66D9"/><path d="M 290.0 168 Q 293.3 175.7 301.0 179 Q 293.3 182.3 290.0 190 Q 286.7 182.3 279.0 179 Q 286.7 175.7 290.0 168 Z" fill="#9A66D9"/><g transform="translate(111.0,370.0)"><path d="M5.04 0.21000000000000002Q3.318 0.21000000000000002 2.604 -0.8400000000000001Q1.8900000000000001 -1.8900000000000001 1.8900000000000001 -3.402Q1.8900000000000001 -4.452 2.1210000000000004 -5.376Q2.3520000000000003 -6.300000000000001 2.814 -7.476000000000001H2.73Q2.394 -7.476000000000001 2.394 -7.812Q2.394 -7.98 2.7510000000000003 -8.778Q3.108 -9.576 3.675 -10.71Q4.242 -11.844000000000001 4.851 -13.020000000000001Q5.46 -14.196000000000002 5.964 -15.120000000000001Q6.804 -16.674 7.812 -18.333Q8.82 -19.992 9.807 -21.504Q10.794 -23.016000000000002 11.466000000000001 -23.982000000000003Q12.978000000000002 -26.082 14.280000000000001 -26.082H14.49Q14.868 -26.082 15.351 -25.956000000000003Q15.834000000000001 -25.830000000000002 16.254 -25.914Q15.624 -25.242 14.343 -23.499000000000002Q13.062000000000001 -21.756 11.55 -19.53Q10.92 -18.606 9.975000000000001 -17.052Q9.030000000000001 -15.498000000000001 7.98 -13.566Q6.930000000000001 -11.634 6.027000000000001 -9.639Q5.1240000000000006 -7.644 4.5360000000000005 -5.775Q3.9480000000000004 -3.906 3.9480000000000004 -2.436Q3.9480000000000004 -1.4700000000000002 4.284000000000001 -1.092Q4.62 -0.7140000000000001 5.1240000000000006 -0.7140000000000001Q5.7540000000000004 -0.7140000000000001 6.615 -1.449Q7.476000000000001 -2.184 8.379000000000001 -3.3810000000000002Q9.282 -4.578 10.038 -6.027000000000001Q10.794 -7.476000000000001 11.277000000000001 -8.967Q11.760000000000002 -10.458 11.760000000000002 -11.718Q11.760000000000002 -12.936 11.319 -13.482Q10.878 -14.028 10.164000000000001 -14.028Q9.870000000000001 -14.028 9.576 -13.881Q9.282 -13.734 9.072000000000001 -13.734Q8.862 -13.734 8.862 -13.944Q8.862 -14.154000000000002 9.303 -14.406000000000002Q9.744 -14.658000000000001 10.626000000000001 -14.658000000000001Q11.424000000000001 -14.658000000000001 12.243000000000002 -14.238000000000001Q13.062000000000001 -13.818000000000001 13.608 -12.873000000000001Q14.154000000000002 -11.928 14.154000000000002 -10.416Q14.154000000000002 -8.610000000000001 13.314 -6.7410000000000005Q12.474 -4.872 11.13 -3.297Q9.786000000000001 -1.7220000000000002 8.169 -0.7560000000000001Q6.5520000000000005 0.21000000000000002 5.04 0.21000000000000002Z M10.416 13.398000000000001Q8.232 13.398000000000001 7.308 12.537Q6.3839999999999995 11.676 6.3839999999999995 10.5Q6.3839999999999995 8.694 7.706999999999999 7.1610000000000005Q9.03 5.628 10.962 4.704000000000001Q13.146 3.696 15.939 3.066Q18.732 2.436 21.294 1.6800000000000002Q22.092 0.29400000000000004 22.764 -1.491Q23.436 -3.2760000000000002 23.982 -4.977Q24.528 -6.678000000000001 24.864 -7.7700000000000005Q24.36 -6.846 23.583 -5.523Q22.806 -4.2 21.840000000000003 -2.9400000000000004Q20.874000000000002 -1.6800000000000002 19.761000000000003 -0.8400000000000001Q18.648 0.0 17.43 0.0Q16.968 0.0 16.317 -0.21000000000000002Q15.666 -0.42000000000000004 15.183 -0.9870000000000001Q14.7 -1.554 14.7 -2.688Q14.7 -3.7800000000000002 15.372 -5.103Q16.044 -6.426 16.716 -7.728000000000001Q16.506 -7.728000000000001 16.359 -7.7700000000000005Q16.212 -7.812 16.212 -8.106Q16.338 -8.358 16.716 -9.198Q17.094 -10.038 17.577 -11.046Q18.060000000000002 -12.054 18.438000000000002 -12.81Q18.9 -13.776000000000002 19.467 -14.154Q20.034 -14.532 20.58 -14.532H23.184Q22.89 -14.280000000000001 22.449 -13.965Q22.008000000000003 -13.65 21.630000000000003 -13.020000000000001Q20.496000000000002 -11.088000000000001 19.656000000000002 -9.303Q18.816000000000003 -7.518000000000001 17.85 -5.502000000000001Q17.388 -4.5360000000000005 17.178 -3.7380000000000004Q16.968 -2.9400000000000004 16.968 -2.3520000000000003Q16.968 -0.9660000000000001 17.892 -0.9660000000000001Q18.9 -0.9660000000000001 20.328 -2.604Q21.504 -3.99 22.701 -5.901Q23.898000000000003 -7.812 25.011000000000003 -9.849Q26.124000000000002 -11.886000000000001 26.964 -13.608Q27.426000000000002 -14.532 28.602 -14.532H30.912Q29.694000000000003 -13.692 29.043000000000003 -12.348Q28.392000000000003 -11.004000000000001 27.594 -8.904Q26.712000000000003 -6.594 25.914 -4.1160000000000005Q25.116 -1.6380000000000001 24.15 0.9660000000000001Q26.208 0.252 27.594 -0.882Q28.98 -2.016 30.051000000000002 -3.801Q31.122 -5.586 32.214 -8.106Q32.718 -8.106 32.718 -7.728000000000001Q31.794000000000004 -5.796 31.038000000000004 -4.3260000000000005Q30.282000000000004 -2.8560000000000003 29.358000000000004 -1.743Q28.434 -0.63 27.048000000000002 0.315Q25.662 1.26 23.478 2.1420000000000003Q22.47 3.9480000000000004 21.189 5.901Q19.908 7.854 18.291 9.555Q16.674 11.256 14.721 12.327000000000002Q12.768 13.398000000000001 10.416 13.398000000000001ZM9.408 12.558000000000002Q10.794 12.558000000000002 12.264 11.718Q13.734 10.878 15.120000000000001 9.597000000000001Q16.506 8.316 17.661 6.993Q18.816000000000003 5.67 19.53 4.662Q19.740000000000002 4.368 19.992 3.9060000000000006Q20.244 3.4440000000000004 20.496000000000002 3.024Q18.438000000000002 3.5700000000000003 15.981000000000002 4.221Q13.524 4.872 11.718 5.67Q9.702 6.510000000000001 8.547 8.064Q7.3919999999999995 9.618 7.3919999999999995 10.836Q7.3919999999999995 11.592 7.875 12.075000000000001Q8.358 12.558000000000002 9.408 12.558000000000002Z M51.870000000000005 2.478Q47.502 2.478 44.667 1.26Q41.83200000000001 0.042 40.467000000000006 -1.9320000000000002Q39.102000000000004 -3.906 39.102000000000004 -6.132000000000001Q39.102000000000004 -8.652000000000001 40.404 -10.71Q41.706 -12.768 43.827000000000005 -14.280000000000001Q45.94800000000001 -15.792000000000002 48.510000000000005 -16.674Q51.072 -17.556 53.550000000000004 -17.682000000000002Q51.36600000000001 -18.48 50.001000000000005 -19.887Q48.636 -21.294 48.636 -22.974Q48.636 -24.696 49.70700000000001 -26.271Q50.778000000000006 -27.846 52.584 -29.169Q54.39 -30.492 56.679 -31.458Q58.968 -32.424 61.446000000000005 -32.949Q63.92400000000001 -33.474000000000004 66.23400000000001 -33.474000000000004Q69.97200000000001 -33.474000000000004 72.19800000000001 -32.214Q74.424 -30.954 74.424 -28.98Q74.424 -27.174000000000003 72.471 -25.410000000000004Q70.518 -23.646 67.07400000000001 -22.89Q66.402 -22.764000000000003 66.19200000000001 -22.764000000000003Q65.73 -22.764000000000003 65.73 -23.142000000000003Q65.73 -23.268 65.87700000000001 -23.331000000000003Q66.024 -23.394000000000002 66.528 -23.562Q69.006 -24.402 70.476 -25.935000000000002Q71.946 -27.468 71.946 -29.19Q71.946 -30.66 70.539 -31.563000000000002Q69.132 -32.466 66.31800000000001 -32.466Q63.798 -32.466 61.236000000000004 -31.752000000000002Q58.67400000000001 -31.038 56.532000000000004 -29.736Q54.39 -28.434 53.088 -26.754Q51.786 -25.074 51.786 -23.1Q51.786 -21.672 52.626000000000005 -20.79Q53.46600000000001 -19.908 54.76800000000001 -19.383000000000003Q56.07000000000001 -18.858 57.477000000000004 -18.543Q58.884 -18.228 60.06 -17.85Q60.480000000000004 -17.724 60.60600000000001 -17.514000000000003Q60.732000000000006 -17.304000000000002 60.732000000000006 -17.094Q60.732000000000006 -16.548000000000002 60.123000000000005 -16.17Q59.51400000000001 -15.792000000000002 58.422000000000004 -15.792000000000002Q57.75000000000001 -15.792000000000002 56.93100000000001 -15.813000000000002Q56.11200000000001 -15.834000000000001 55.188 -15.834000000000001Q53.886 -15.834000000000001 52.437000000000005 -15.708000000000002Q50.98800000000001 -15.582 49.266000000000005 -15.036000000000001Q47.08200000000001 -14.364 45.465 -12.936Q43.848000000000006 -11.508000000000001 42.96600000000001 -9.786000000000001Q42.084 -8.064 42.084 -6.384Q42.084 -4.2 43.092000000000006 -2.436Q44.10000000000001 -0.672 46.284000000000006 0.35700000000000004Q48.468 1.3860000000000001 52.038000000000004 1.3860000000000001Q55.31400000000001 1.3860000000000001 58.38000000000001 0.546Q61.446000000000005 -0.29400000000000004 64.05000000000001 -1.6170000000000002Q66.65400000000001 -2.9400000000000004 68.50200000000001 -4.368Q70.01400000000001 -5.586 70.959 -6.846Q71.904 -8.106 71.904 -9.030000000000001Q71.904 -10.206000000000001 70.266 -10.458Q69.846 -10.5 69.846 -10.71Q69.846 -11.046000000000001 70.434 -11.046000000000001Q71.65200000000002 -11.046000000000001 72.59700000000001 -10.227Q73.542 -9.408000000000001 73.542 -8.190000000000001Q73.542 -5.796 70.14000000000001 -3.1500000000000004Q68.08200000000001 -1.512 65.12100000000001 -0.252Q62.16000000000001 1.008 58.73700000000001 1.743Q55.31400000000001 2.478 51.870000000000005 2.478Z M76.77600000000001 0.29400000000000004Q75.474 0.29400000000000004 74.97 -0.378Q74.46600000000001 -1.05 74.46600000000001 -2.1Q74.46600000000001 -3.192 74.84400000000001 -4.578Q75.22200000000001 -5.964 75.852 -7.686000000000001Q75.39 -7.686000000000001 75.39 -8.106Q75.726 -8.946 76.125 -10.017Q76.524 -11.088000000000001 76.524 -12.432Q76.524 -13.104000000000001 76.356 -13.566Q76.188 -14.028 75.852 -14.112Q75.852 -14.112 76.293 -14.196000000000002Q76.73400000000001 -14.280000000000001 77.238 -14.364Q77.742 -14.448 77.91000000000001 -14.448Q78.162 -14.49 78.37200000000001 -14.511Q78.58200000000001 -14.532 78.75 -14.532Q79.17 -14.532 79.31700000000001 -14.196000000000002Q79.46400000000001 -13.860000000000001 79.42200000000001 -12.726Q79.38000000000001 -11.676 79.00200000000001 -10.185Q78.62400000000001 -8.694 78.20400000000001 -7.602Q77.658 -6.174 77.196 -4.704000000000001Q76.73400000000001 -3.234 76.73400000000001 -2.2680000000000002Q76.73400000000001 -1.4280000000000002 77.19600000000001 -1.1760000000000002Q77.53200000000001 -1.05 77.784 -1.05Q78.75 -1.05 79.674 -1.9740000000000002Q80.59800000000001 -2.898 81.417 -4.221Q82.236 -5.5440000000000005 82.78200000000001 -6.7620000000000005Q82.53 -7.728000000000001 82.53 -9.072000000000001Q82.53 -10.5 82.86600000000001 -11.97Q83.20200000000001 -13.440000000000001 83.91600000000001 -14.427000000000001Q84.63000000000001 -15.414000000000001 85.76400000000001 -15.414000000000001Q86.56200000000001 -15.414000000000001 86.56200000000001 -14.700000000000001Q86.56200000000001 -14.532 86.16300000000001 -13.272Q85.76400000000001 -12.012 85.13400000000001 -10.290000000000001Q84.504 -8.568000000000001 83.79 -6.972Q83.62200000000001 -6.636 83.49600000000001 -6.300000000000001Q83.664 -5.586 84.126 -5.1450000000000005Q84.58800000000001 -4.704000000000001 85.26 -4.704000000000001Q86.10000000000001 -4.704000000000001 86.83500000000001 -5.481Q87.57000000000001 -6.258 88.36800000000001 -8.106Q88.87200000000001 -8.106 88.87200000000001 -7.728000000000001Q88.2 -6.048 87.255 -5.04Q86.31 -4.032 85.13400000000001 -4.032Q83.706 -4.032 83.07600000000001 -5.502000000000001Q82.36200000000001 -4.032 81.39600000000002 -2.709Q80.43 -1.3860000000000001 79.275 -0.546Q78.12 0.29400000000000004 76.77600000000001 0.29400000000000004Z M91.39200000000001 0.168Q89.83800000000002 0.168 88.59900000000002 -0.8400000000000001Q87.36000000000001 -1.848 87.36000000000001 -3.906Q87.36000000000001 -5.628 88.13700000000001 -7.5600000000000005Q88.91400000000002 -9.492 90.19500000000002 -11.193000000000001Q91.47600000000001 -12.894 93.05100000000002 -13.965Q94.62600000000002 -15.036000000000001 96.22200000000001 -15.036000000000001Q97.02000000000001 -15.036000000000001 97.77600000000001 -14.574000000000002Q98.53200000000001 -14.112 98.53200000000001 -12.978000000000002Q98.53200000000001 -11.928 97.73400000000001 -10.668000000000001Q96.93600000000002 -9.408000000000001 95.46600000000001 -8.316Q94.83600000000001 -7.854 93.87 -7.434Q92.90400000000001 -7.014 91.93800000000002 -6.741Q90.97200000000001 -6.468 90.34200000000001 -6.468Q90.13200000000002 -5.964 89.94300000000001 -5.1240000000000006Q89.75400000000002 -4.284000000000001 89.75400000000002 -3.402Q89.75400000000002 -2.3520000000000003 90.17400000000002 -1.5120000000000002Q90.59400000000002 -0.672 91.72800000000001 -0.672Q93.11400000000002 -0.672 94.311 -1.4700000000000002Q95.50800000000001 -2.2680000000000002 96.453 -3.4860000000000007Q97.39800000000001 -4.704000000000001 98.07000000000002 -5.964Q98.74200000000002 -7.224 99.12000000000002 -8.106Q99.62400000000001 -8.106 99.62400000000001 -7.728000000000001Q99.07800000000002 -6.5520000000000005 98.38500000000002 -5.166Q97.69200000000002 -3.7800000000000002 96.74700000000001 -2.583Q95.80200000000002 -1.3860000000000001 94.47900000000001 -0.6090000000000001Q93.15600000000002 0.168 91.39200000000001 0.168ZM90.63600000000001 -7.224Q91.22400000000002 -7.224 92.61000000000001 -7.665Q93.99600000000001 -8.106 95.13000000000001 -9.072000000000001Q96.22200000000001 -10.038 96.81 -11.193000000000001Q97.39800000000001 -12.348 97.39800000000001 -13.146Q97.39800000000001 -14.07 96.72600000000001 -14.07Q96.22200000000001 -14.07 95.34 -13.398Q94.45800000000001 -12.726 93.15600000000002 -11.13Q92.35800000000002 -10.122 91.64400000000002 -8.946Q90.93000000000002 -7.7700000000000005 90.63600000000001 -7.224Z M101.09400000000001 0.126Q99.54 0.126 98.805 -0.819Q98.07000000000001 -1.764 98.07000000000001 -3.0660000000000003Q98.07000000000001 -4.41 98.44800000000001 -5.838Q98.82600000000001 -7.266 99.12 -8.232000000000001Q99.79200000000002 -10.584000000000001 100.82100000000001 -13.251000000000001Q101.85000000000001 -15.918000000000001 103.08900000000001 -18.501Q104.32800000000002 -21.084 105.546 -23.142000000000003Q106.51200000000001 -24.78 107.62500000000001 -25.599000000000004Q108.73800000000001 -26.418000000000003 109.578 -26.418000000000003Q110.25000000000001 -26.418000000000003 110.64900000000002 -25.935000000000002Q111.04800000000002 -25.452 111.04800000000002 -24.486Q111.04800000000002 -23.814 110.81700000000001 -22.89Q110.58600000000001 -21.966 110.04 -20.790000000000003Q108.57000000000001 -17.514 106.53300000000002 -14.238Q104.49600000000001 -10.962000000000002 101.388 -8.106Q100.88400000000001 -6.930000000000001 100.54800000000002 -5.586Q100.21200000000002 -4.242 100.21200000000002 -3.402Q100.21200000000002 -0.798 101.97600000000001 -0.798Q103.32000000000001 -0.798 104.958 -2.7510000000000003Q106.596 -4.704000000000001 108.06600000000002 -8.106Q108.23400000000001 -8.106 108.40200000000002 -8.043Q108.57000000000001 -7.98 108.57000000000001 -7.728000000000001Q108.108 -6.594 107.415 -5.229Q106.72200000000001 -3.8640000000000003 105.81900000000002 -2.6460000000000004Q104.91600000000001 -1.4280000000000002 103.74000000000001 -0.651Q102.56400000000001 0.126 101.09400000000001 0.126ZM101.72400000000002 -9.450000000000001Q103.236 -11.004000000000001 104.66400000000002 -13.041Q106.09200000000001 -15.078000000000001 107.33100000000002 -17.283Q108.57000000000001 -19.488 109.41000000000001 -21.462Q109.70400000000001 -22.092000000000002 109.893 -22.848000000000003Q110.08200000000001 -23.604000000000003 110.08200000000001 -24.108Q110.08200000000001 -24.696 109.78800000000001 -24.696Q109.62 -24.696 109.284 -24.381Q108.94800000000001 -24.066000000000003 108.40200000000002 -23.310000000000002Q107.60400000000001 -22.26 106.65900000000002 -20.454Q105.71400000000001 -18.648 104.74800000000002 -16.59Q103.78200000000001 -14.532 102.98400000000001 -12.621Q102.186 -10.71 101.72400000000002 -9.450000000000001Z M102.27000000000001 13.398000000000001Q100.08600000000001 13.398000000000001 99.162 12.537Q98.23800000000001 11.676 98.23800000000001 10.5Q98.23800000000001 8.694 99.561 7.1610000000000005Q100.88400000000001 5.628 102.816 4.704000000000001Q105.00000000000001 3.696 107.793 3.066Q110.58600000000001 2.436 113.14800000000001 1.6800000000000002Q113.94600000000001 0.29400000000000004 114.61800000000001 -1.491Q115.29 -3.2760000000000002 115.83600000000001 -4.977Q116.382 -6.678000000000001 116.718 -7.7700000000000005Q116.21400000000001 -6.846 115.43700000000001 -5.523Q114.66000000000001 -4.2 113.69400000000002 -2.9400000000000004Q112.72800000000001 -1.6800000000000002 111.61500000000001 -0.8400000000000001Q110.50200000000001 0.0 109.284 0.0Q108.822 0.0 108.171 -0.21000000000000002Q107.52000000000001 -0.42000000000000004 107.037 -0.9870000000000001Q106.554 -1.554 106.554 -2.688Q106.554 -3.7800000000000002 107.226 -5.103Q107.89800000000001 -6.426 108.57000000000001 -7.728000000000001Q108.36000000000001 -7.728000000000001 108.21300000000001 -7.7700000000000005Q108.066 -7.812 108.066 -8.106Q108.19200000000001 -8.358 108.57000000000001 -9.198Q108.94800000000001 -10.038 109.43100000000001 -11.046Q109.91400000000002 -12.054 110.292 -12.81Q110.754 -13.776000000000002 111.321 -14.154Q111.888 -14.532 112.43400000000001 -14.532H115.03800000000001Q114.74400000000001 -14.280000000000001 114.30300000000001 -13.965Q113.86200000000001 -13.65 113.48400000000001 -13.020000000000001Q112.35000000000001 -11.088000000000001 111.51000000000002 -9.303Q110.67000000000002 -7.518000000000001 109.70400000000001 -5.502000000000001Q109.242 -4.5360000000000005 109.03200000000001 -3.7380000000000004Q108.822 -2.9400000000000004 108.822 -2.3520000000000003Q108.822 -0.9660000000000001 109.74600000000001 -0.9660000000000001Q110.754 -0.9660000000000001 112.182 -2.604Q113.358 -3.99 114.555 -5.901Q115.75200000000001 -7.812 116.86500000000001 -9.849Q117.97800000000001 -11.886000000000001 118.81800000000001 -13.608Q119.28 -14.532 120.456 -14.532H122.766Q121.548 -13.692 120.897 -12.348Q120.24600000000001 -11.004000000000001 119.44800000000001 -8.904Q118.566 -6.594 117.768 -4.1160000000000005Q116.97000000000001 -1.6380000000000001 116.004 0.9660000000000001Q118.06200000000001 0.252 119.44800000000001 -0.882Q120.834 -2.016 121.905 -3.801Q122.97600000000001 -5.586 124.06800000000001 -8.106Q124.572 -8.106 124.572 -7.728000000000001Q123.64800000000001 -5.796 122.89200000000001 -4.3260000000000005Q122.13600000000001 -2.8560000000000003 121.21200000000002 -1.743Q120.28800000000001 -0.63 118.90200000000002 0.315Q117.516 1.26 115.33200000000001 2.1420000000000003Q114.32400000000001 3.9480000000000004 113.043 5.901Q111.76200000000001 7.854 110.14500000000001 9.555Q108.528 11.256 106.57500000000002 12.327000000000002Q104.62200000000001 13.398000000000001 102.27000000000001 13.398000000000001ZM101.262 12.558000000000002Q102.64800000000001 12.558000000000002 104.11800000000001 11.718Q105.58800000000001 10.878 106.97400000000002 9.597000000000001Q108.36000000000001 8.316 109.51500000000001 6.993Q110.67000000000002 5.67 111.38400000000001 4.662Q111.59400000000001 4.368 111.846 3.9060000000000006Q112.09800000000001 3.4440000000000004 112.35000000000001 3.024Q110.292 3.5700000000000003 107.83500000000001 4.221Q105.37800000000001 4.872 103.572 5.67Q101.55600000000001 6.510000000000001 100.40100000000001 8.064Q99.24600000000001 9.618 99.24600000000001 10.836Q99.24600000000001 11.592 99.72900000000001 12.075000000000001Q100.212 12.558000000000002 101.262 12.558000000000002Z M120.036 0.336Q121.548 -2.73 122.934 -5.7330000000000005Q124.32000000000001 -8.736 125.79 -11.466000000000001Q126.63000000000001 -12.978000000000002 127.218 -13.587000000000002Q127.806 -14.196000000000002 128.772 -14.196000000000002Q129.108 -14.196000000000002 129.486 -14.091000000000001Q129.864 -13.986 130.24200000000002 -13.986Q130.494 -13.986 130.62 -14.028Q130.032 -13.692 129.087 -12.369Q128.142 -11.046000000000001 127.176 -9.324000000000002Q126.21000000000001 -7.602 125.45400000000001 -6.090000000000001Q126.25200000000001 -7.056 127.134 -8.022Q128.016 -8.988000000000001 129.066 -9.870000000000001Q130.074 -10.752 131.481 -11.697000000000001Q132.888 -12.642000000000001 134.232 -13.272000000000002Q135.576 -13.902000000000001 136.374 -13.902000000000001Q136.668 -13.902000000000001 136.794 -13.860000000000001Q136.794 -13.860000000000001 136.332 -13.041Q135.87 -12.222000000000001 135.17700000000002 -10.899000000000001Q134.484 -9.576 133.77 -8.085Q133.056 -6.594 132.489 -5.229Q131.922 -3.8640000000000003 131.75400000000002 -2.9400000000000004Q131.62800000000001 -2.394 131.62800000000001 -1.9320000000000002Q131.62800000000001 -1.26 131.88 -1.05Q132.132 -0.8400000000000001 132.42600000000002 -0.8400000000000001Q133.224 -0.8400000000000001 134.064 -1.5540000000000003Q134.904 -2.2680000000000002 135.68099999999998 -3.3810000000000002Q136.458 -4.494000000000001 137.13 -5.7540000000000004Q137.802 -7.014 138.264 -8.106Q138.768 -8.106 138.768 -7.728000000000001Q138.306 -6.594 137.613 -5.229Q136.92000000000002 -3.8640000000000003 136.05900000000003 -2.6460000000000004Q135.198 -1.4280000000000002 134.14800000000002 -0.6300000000000001Q133.098 0.168 131.88 0.168Q131.04 0.168 130.137 -0.42Q129.234 -1.008 129.234 -2.604Q129.234 -3.0660000000000003 129.318 -3.591Q129.40200000000002 -4.1160000000000005 129.612 -4.746Q129.948 -5.586 130.41000000000003 -6.5520000000000005Q130.872 -7.518000000000001 131.922 -9.198Q132.216 -9.66 132.279 -9.912Q132.342 -10.164000000000001 132.342 -10.332Q132.342 -10.836 131.88 -10.836Q131.502 -10.836 130.767 -10.416Q130.032 -9.996 128.94 -8.946Q127.89 -7.938000000000001 126.441 -6.09Q124.992 -4.242 123.102 -0.63Q122.808 -0.084 122.45100000000001 -0.042Q122.09400000000001 0.0 121.464 0.042Q121.044 0.084 120.666 0.10500000000000001Q120.288 0.126 120.036 0.336Z M150.066 1.6380000000000001Q149.142 1.6380000000000001 148.26 1.512Q145.61399999999998 1.1760000000000002 144.375 -0.041999999999999926Q143.136 -1.26 143.136 -2.688Q143.136 -4.242 144.543 -5.502000000000001Q145.95 -6.7620000000000005 148.512 -6.7620000000000005Q149.31 -6.7620000000000005 150.213 -6.615Q151.11599999999999 -6.468 152.124 -6.132000000000001Q152.628 -5.964 152.628 -5.67Q152.628 -5.502000000000001 152.37599999999998 -5.502000000000001Q152.124 -5.502000000000001 151.956 -5.586Q151.284 -5.838 150.675 -5.943Q150.066 -6.048 149.51999999999998 -6.048Q147.714 -6.048 146.769 -5.019Q145.82399999999998 -3.99 145.82399999999998 -2.7720000000000002Q145.82399999999998 -1.596 146.79 -0.63Q147.756 0.336 149.856 0.336Q152.50199999999998 0.336 154.74899999999997 -0.882Q156.99599999999998 -2.1 159.012 -4.074Q161.154 -6.174 162.918 -9.135Q164.682 -12.096 166.425 -15.477Q168.168 -18.858 170.226 -22.302Q172.284 -25.746000000000002 174.97199999999998 -28.770000000000003Q175.518 -29.358 176.08499999999998 -30.009Q176.652 -30.66 177.19799999999998 -31.122000000000003Q175.76999999999998 -31.332 174.25799999999998 -31.437Q172.74599999999998 -31.542 171.27599999999998 -31.542Q169.09199999999998 -31.542 167.13899999999998 -31.353Q165.18599999999998 -31.164 163.254 -30.828000000000003Q161.28 -30.450000000000003 158.844 -29.652Q156.408 -28.854000000000003 154.11899999999997 -27.573Q151.82999999999998 -26.292 150.213 -24.486Q148.596 -22.68 148.218 -20.328000000000003Q148.176 -20.118000000000002 148.15499999999997 -19.887Q148.134 -19.656000000000002 148.134 -19.446Q148.134 -17.514 149.457 -16.254Q150.78 -14.994000000000002 152.54399999999998 -14.994000000000002Q153.846 -14.994000000000002 155.064 -15.687000000000001Q156.28199999999998 -16.380000000000003 157.248 -17.535000000000004Q158.214 -18.69 158.676 -20.076Q158.718 -20.496000000000002 159.012 -20.496000000000002Q159.26399999999998 -20.496000000000002 159.26399999999998 -20.034000000000002Q159.22199999999998 -18.186 158.19299999999998 -16.842Q157.164 -15.498000000000001 155.60999999999999 -14.805Q154.05599999999998 -14.112 152.45999999999998 -14.112Q150.822 -14.112 149.35199999999998 -14.805Q147.88199999999998 -15.498000000000001 146.95799999999997 -16.863Q146.034 -18.228 146.034 -20.244Q146.034 -22.596 147.189 -24.402Q148.344 -26.208000000000002 150.276 -27.573Q152.208 -28.938000000000002 154.476 -29.883000000000003Q156.744 -30.828000000000003 159.012 -31.395000000000003Q161.28 -31.962000000000003 163.128 -32.256Q165.018 -32.550000000000004 167.055 -32.718Q169.09199999999998 -32.886 171.19199999999998 -32.886Q172.998 -32.886 174.80399999999997 -32.718Q176.60999999999999 -32.550000000000004 178.332 -32.214Q179.046 -32.760000000000005 179.802 -33.18000000000001Q180.558 -33.6 181.482 -33.936Q182.07 -34.188 182.36399999999998 -34.188Q182.61599999999999 -34.188 182.61599999999999 -34.02Q182.61599999999999 -33.726 181.944 -33.306000000000004Q181.608 -33.138000000000005 181.10399999999998 -32.718Q180.6 -32.298 180.012 -31.752000000000002Q182.742 -31.080000000000002 184.926 -29.736Q187.32 -28.308000000000003 188.349 -26.712000000000003Q189.378 -25.116000000000003 189.378 -23.436Q189.378 -21.504 188.202 -19.593000000000004Q187.02599999999998 -17.682000000000002 185.13599999999997 -16.044Q183.24599999999998 -14.406 180.97799999999998 -13.209Q178.70999999999998 -12.012 176.48399999999998 -11.466000000000001Q174.34199999999998 -10.92 172.158 -10.668Q169.974 -10.416 168.25199999999998 -10.416Q167.958 -10.416 167.643 -10.416Q167.328 -10.416 167.034 -10.458Q165.606 -8.442 164.094 -6.531000000000001Q162.582 -4.62 160.69199999999998 -2.814Q158.382 -0.63 155.652 0.504Q152.922 1.6380000000000001 150.066 1.6380000000000001ZM167.62199999999999 -11.382000000000001Q169.218 -11.34 171.192 -11.634Q173.166 -11.928 175.14 -12.516Q178.416 -13.524000000000001 181.041 -15.414000000000001Q183.666 -17.304000000000002 185.199 -19.614000000000004Q186.732 -21.924000000000003 186.732 -24.150000000000002Q186.732 -25.494000000000003 186.08100000000002 -26.712000000000003Q185.43 -27.930000000000003 183.95999999999998 -28.896Q182.994 -29.526000000000003 181.776 -29.988000000000003Q180.558 -30.450000000000003 179.214 -30.744000000000003Q177.072 -27.720000000000002 175.203 -24.444000000000003Q173.334 -21.168000000000003 171.507 -17.85Q169.68 -14.532 167.62199999999999 -11.382000000000001Z M190.386 0.126Q189.42 0.126 188.685 -0.42000000000000004Q187.95 -0.9660000000000001 187.95 -2.6460000000000004Q187.95 -3.3600000000000003 188.055 -3.99Q188.16 -4.62 188.32799999999997 -5.3340000000000005Q187.95 -4.704000000000001 187.278 -3.7800000000000002Q186.606 -2.8560000000000003 185.78699999999998 -1.9740000000000002Q184.968 -1.092 184.10699999999997 -0.504Q183.24599999999998 0.084 182.48999999999998 0.084Q181.398 0.084 180.726 -0.903Q180.05399999999997 -1.8900000000000001 180.05399999999997 -3.486Q180.05399999999997 -5.208 180.85199999999998 -7.182Q181.64999999999998 -9.156 183.03599999999997 -10.962Q184.42199999999997 -12.768 186.22799999999998 -13.902000000000001Q188.034 -15.036000000000001 190.00799999999998 -15.036000000000001Q190.974 -15.036000000000001 191.856 -14.721Q192.73799999999997 -14.406 193.41 -13.692Q193.70399999999998 -13.398000000000001 193.70399999999998 -13.020000000000001Q193.70399999999998 -12.768 193.49399999999997 -12.600000000000001Q193.284 -12.432 192.94799999999998 -12.516Q192.486 -13.986 190.974 -13.986Q190.26 -13.986 189.33599999999998 -13.524000000000001Q188.202 -12.936 186.921 -11.655000000000001Q185.64 -10.374 184.527 -8.757000000000001Q183.414 -7.140000000000001 182.7 -5.502000000000001Q181.986 -3.8640000000000003 181.986 -2.52Q181.986 -1.1340000000000001 183.03599999999997 -1.1340000000000001Q183.95999999999998 -1.1340000000000001 184.94699999999997 -2.016Q185.93399999999997 -2.898 186.837 -4.221Q187.73999999999998 -5.5440000000000005 188.49599999999998 -6.846Q189.25199999999998 -8.148 189.67199999999997 -8.946Q190.302 -10.08 190.84799999999998 -10.836Q191.39399999999998 -11.592 192.402 -11.592Q192.86399999999998 -11.592 193.32599999999996 -11.466000000000001Q193.78799999999998 -11.34 194.29199999999997 -11.424000000000001Q193.03199999999998 -10.164000000000001 192.087 -8.442Q191.142 -6.720000000000001 190.63799999999998 -5.061Q190.134 -3.402 190.134 -2.2680000000000002Q190.134 -1.008 190.974 -1.008Q191.646 -1.008 192.423 -1.764Q193.2 -2.52 193.935 -3.675Q194.67 -4.83 195.29999999999998 -6.027Q195.92999999999998 -7.224 196.308 -8.106Q196.51799999999997 -8.106 196.66499999999996 -8.064Q196.81199999999998 -8.022 196.81199999999998 -7.728000000000001Q196.76999999999998 -7.5600000000000005 196.66499999999996 -7.371Q196.55999999999997 -7.182 196.35 -6.720000000000001Q196.01399999999998 -6.048 195.426 -4.914Q194.838 -3.7800000000000002 194.04 -2.625Q193.242 -1.4700000000000002 192.31799999999998 -0.6720000000000002Q191.39399999999998 0.126 190.386 0.126Z M205.00199999999998 -22.176000000000002Q204.456 -21.378 203.784 -20.16Q203.112 -18.942 202.545 -17.808Q201.97799999999998 -16.674 201.684 -16.086000000000002H205.54799999999997Q205.54799999999997 -15.918000000000001 205.40099999999998 -15.540000000000001Q205.254 -15.162 204.83399999999997 -14.994000000000002H201.17999999999998Q200.676 -13.860000000000001 200.02499999999998 -12.264000000000001Q199.374 -10.668000000000001 198.765 -8.946000000000002Q198.15599999999998 -7.224 197.75699999999998 -5.7330000000000005Q197.35799999999998 -4.242 197.35799999999998 -3.318Q197.35799999999998 -2.0580000000000003 197.69399999999996 -1.4490000000000003Q198.02999999999997 -0.8400000000000001 198.91199999999998 -0.8400000000000001Q200.046 -0.8400000000000001 201.096 -1.9530000000000003Q202.146 -3.0660000000000003 203.09099999999998 -4.746Q204.03599999999997 -6.426 204.74999999999997 -8.106Q205.254 -8.106 205.254 -7.728000000000001Q204.79199999999997 -6.594 204.11999999999998 -5.25Q203.44799999999998 -3.906 202.587 -2.6670000000000003Q201.726 -1.4280000000000002 200.65499999999997 -0.651Q199.58399999999997 0.126 198.28199999999998 0.126Q196.51799999999997 0.126 195.88799999999998 -0.861Q195.25799999999998 -1.848 195.25799999999998 -3.402Q195.25799999999998 -4.5360000000000005 195.678 -6.1530000000000005Q196.09799999999998 -7.7700000000000005 196.707 -9.492Q197.31599999999997 -11.214 197.904 -12.705000000000002Q198.492 -14.196000000000002 198.82799999999997 -14.994000000000002H196.14Q196.14 -15.33 196.43399999999997 -15.708000000000002Q196.72799999999998 -16.086000000000002 197.064 -16.086000000000002H199.29Q199.62599999999998 -16.758000000000003 200.06699999999998 -17.766000000000002Q200.50799999999998 -18.774 201.26399999999998 -19.992Q201.89399999999998 -21.0 202.88099999999997 -21.588Q203.868 -22.176000000000002 205.00199999999998 -22.176000000000002Z M205.926 0.0Q204.37199999999999 0.0 203.742 -0.903Q203.112 -1.806 203.112 -2.982Q203.112 -3.612 203.259 -4.263Q203.40599999999998 -4.914000000000001 203.61599999999999 -5.46L206.42999999999998 -12.642000000000001Q206.55599999999998 -12.978000000000002 206.55599999999998 -13.23Q206.55599999999998 -13.65 206.346 -13.965Q206.136 -14.280000000000001 206.052 -14.406L208.362 -14.49Q208.992 -14.532 209.265 -14.343Q209.53799999999998 -14.154000000000002 209.53799999999998 -13.902000000000001Q209.53799999999998 -13.65 209.244 -12.978000000000002Q208.82399999999998 -11.97 208.10999999999999 -10.458Q207.396 -8.946 206.70299999999997 -7.35Q206.01 -5.7540000000000004 205.527 -4.368Q205.04399999999998 -2.982 205.04399999999998 -2.226Q205.04399999999998 -1.6800000000000002 205.317 -1.302Q205.59 -0.924 206.262 -0.924Q207.144 -0.924 208.005 -1.617Q208.86599999999999 -2.31 209.62199999999999 -3.402Q210.378 -4.494000000000001 211.029 -5.7540000000000004Q211.68 -7.014 212.142 -8.106Q212.646 -8.106 212.646 -7.728000000000001Q212.226 -6.678000000000001 211.554 -5.3340000000000005Q210.882 -3.99 210.02100000000002 -2.793Q209.16 -1.596 208.131 -0.798Q207.102 0.0 205.926 0.0ZM209.664 -17.094Q209.118 -17.094 208.719 -17.514000000000003Q208.32 -17.934 208.32 -18.522000000000002Q208.32 -19.236 208.908 -19.803Q209.49599999999998 -20.37 210.20999999999998 -20.37Q210.798 -20.37 211.218 -19.992Q211.63799999999998 -19.614 211.63799999999998 -19.026Q211.63799999999998 -18.27 211.04999999999998 -17.682000000000002Q210.462 -17.094 209.664 -17.094Z M208.10999999999999 0.336Q209.62199999999999 -2.73 211.00799999999998 -5.7330000000000005Q212.39399999999998 -8.736 213.86399999999998 -11.466000000000001Q214.70399999999998 -12.978000000000002 215.29199999999997 -13.587000000000002Q215.88 -14.196000000000002 216.84599999999998 -14.196000000000002Q217.182 -14.196000000000002 217.56 -14.091000000000001Q217.938 -13.986 218.31599999999997 -13.986Q218.56799999999998 -13.986 218.694 -14.028Q218.106 -13.692 217.161 -12.369Q216.21599999999998 -11.046000000000001 215.25 -9.324000000000002Q214.284 -7.602 213.528 -6.090000000000001Q214.326 -7.056 215.20799999999997 -8.022Q216.08999999999997 -8.988000000000001 217.14 -9.870000000000001Q218.148 -10.752 219.555 -11.697000000000001Q220.962 -12.642000000000001 222.30599999999998 -13.272000000000002Q223.64999999999998 -13.902000000000001 224.44799999999998 -13.902000000000001Q224.742 -13.902000000000001 224.868 -13.860000000000001Q224.868 -13.860000000000001 224.406 -13.041Q223.944 -12.222000000000001 223.25099999999998 -10.899000000000001Q222.558 -9.576 221.844 -8.085Q221.13 -6.594 220.563 -5.229Q219.99599999999998 -3.8640000000000003 219.82799999999997 -2.9400000000000004Q219.702 -2.394 219.702 -1.9320000000000002Q219.702 -1.26 219.954 -1.05Q220.206 -0.8400000000000001 220.5 -0.8400000000000001Q221.298 -0.8400000000000001 222.13799999999998 -1.5540000000000003Q222.97799999999998 -2.2680000000000002 223.755 -3.3810000000000002Q224.53199999999998 -4.494000000000001 225.20399999999998 -5.7540000000000004Q225.87599999999998 -7.014 226.338 -8.106Q226.84199999999998 -8.106 226.84199999999998 -7.728000000000001Q226.38 -6.594 225.687 -5.229Q224.994 -3.8640000000000003 224.13299999999998 -2.6460000000000004Q223.272 -1.4280000000000002 222.22199999999998 -0.6300000000000001Q221.172 0.168 219.95399999999998 0.168Q219.11399999999998 0.168 218.21099999999998 -0.42Q217.308 -1.008 217.308 -2.604Q217.308 -3.0660000000000003 217.392 -3.591Q217.476 -4.1160000000000005 217.68599999999998 -4.746Q218.022 -5.586 218.48399999999998 -6.5520000000000005Q218.946 -7.518000000000001 219.99599999999998 -9.198Q220.29 -9.66 220.353 -9.912Q220.416 -10.164000000000001 220.416 -10.332Q220.416 -10.836 219.95399999999998 -10.836Q219.576 -10.836 218.841 -10.416Q218.106 -9.996 217.01399999999998 -8.946Q215.964 -7.938000000000001 214.515 -6.09Q213.06599999999997 -4.242 211.176 -0.63Q210.88199999999998 -0.084 210.52499999999998 -0.042Q210.16799999999998 0.0 209.53799999999998 0.042Q209.118 0.084 208.74 0.10500000000000001Q208.362 0.126 208.10999999999999 0.336ZM222.93599999999998 -16.716Q222.22199999999998 -16.716 221.46599999999998 -17.031Q220.70999999999998 -17.346 220.03799999999998 -17.661Q219.36599999999999 -17.976000000000003 218.862 -17.976000000000003Q218.316 -17.976000000000003 217.938 -17.682000000000002Q217.56 -17.388 217.308 -16.968Q217.266 -16.842000000000002 217.05599999999998 -16.842000000000002Q216.552 -16.842000000000002 216.636 -17.052Q217.05599999999998 -17.85 217.76999999999998 -18.711000000000002Q218.48399999999998 -19.572000000000003 219.492 -19.572000000000003Q220.29 -19.572000000000003 220.962 -19.257Q221.634 -18.942 222.30599999999998 -18.627000000000002Q222.97799999999998 -18.312 223.692 -18.312Q224.28 -18.312 224.61599999999999 -18.648000000000003Q224.952 -18.984 225.204 -19.53Q225.28799999999998 -19.656000000000002 225.456 -19.656000000000002Q225.918 -19.656000000000002 225.834 -19.446Q225.456 -18.564 224.721 -17.64Q223.986 -16.716 222.93599999999998 -16.716Z M228.85799999999998 0.0Q227.136 0.0 226.317 -1.239Q225.498 -2.478 225.498 -4.242Q225.498 -5.880000000000001 226.128 -7.644Q226.79999999999998 -9.576 227.99699999999999 -11.172Q229.194 -12.768 230.64299999999997 -13.755Q232.09199999999998 -14.742 233.51999999999998 -14.742Q235.242 -14.742 236.06099999999998 -13.566Q236.88 -12.39 236.88 -10.584000000000001Q236.88 -9.324 236.45999999999998 -7.938000000000001Q236.04 -6.5520000000000005 235.326 -5.208Q235.87199999999999 -4.662 236.88 -4.662Q238.05599999999998 -4.662 238.896 -5.418Q239.736 -6.174 240.534 -8.106Q241.03799999999998 -8.106 241.03799999999998 -7.728000000000001Q240.23999999999998 -5.796 239.21099999999998 -4.893000000000001Q238.182 -3.99 236.58599999999998 -4.032Q235.61999999999998 -4.032 234.98999999999998 -4.578Q233.814 -2.6460000000000004 232.197 -1.3230000000000002Q230.57999999999998 0.0 228.85799999999998 0.0ZM229.446 -0.924Q230.41199999999998 -0.924 231.378 -1.743Q232.344 -2.5620000000000003 233.142 -3.612Q233.94 -4.662 234.27599999999998 -5.418Q233.60399999999998 -6.636 233.49899999999997 -7.245Q233.39399999999998 -7.854 233.39399999999998 -8.148Q233.39399999999998 -8.946 233.81399999999996 -9.366Q234.23399999999998 -9.786000000000001 234.654 -9.786000000000001Q235.242 -9.786000000000001 235.66199999999998 -9.282Q235.74599999999998 -9.744 235.78799999999998 -10.143Q235.82999999999998 -10.542 235.82999999999998 -10.92Q235.82999999999998 -12.012 235.43099999999998 -12.705000000000002Q235.03199999999998 -13.398000000000001 234.19199999999998 -13.398000000000001Q233.30999999999997 -13.398000000000001 232.344 -12.642000000000001Q231.378 -11.886000000000001 230.517 -10.626000000000001Q229.65599999999998 -9.366000000000001 229.02599999999998 -7.812Q228.48 -6.510000000000001 228.18599999999998 -5.355Q227.892 -4.2 227.892 -3.234Q227.892 -2.184 228.26999999999998 -1.554Q228.648 -0.924 229.446 -0.924Z" fill="#4A2D57"/></g></svg>