<svg xmlns="http://www.w3.org/2000/svg" viewBox="0 0 100 100" role="img" aria-label="flor-lila"><circle cx="50.0" cy="26.0" r="16.1" fill="#9A66D9"/><circle cx="25.3" cy="44.0" r="16.1" fill="#9A66D9"/><circle cx="34.7" cy="73.0" r="16.1" fill="#9A66D9"/><circle cx="65.3" cy="73.0" r="16.1" fill="#9A66D9"/><circle cx="74.7" cy="44.0" r="16.1" fill="#9A66D9"/><circle cx="50" cy="52" r="12" fill="#F6EFE3"/><circle cx="50.0" cy="46.0" r="1.7" fill="#E85D9F"/><circle cx="44.3" cy="50.1" r="1.7" fill="#E85D9F"/><circle cx="46.5" cy="56.9" r="1.7" fill="#E85D9F"/><circle cx="53.5" cy="56.9" r="1.7" fill="#E85D9F"/><circle cx="55.7" cy="50.1" r="1.7" fill="#E85D9F"/><circle cx="50" cy="52" r="2.2" fill="#E85D9F"/><ellipse cx="42" cy="30" rx="4" ry="2.5" fill="#FFFFFF" opacity="0.85" transform="rotate(-20 42 30)"/><path d="M 14 69.5 Q 15.35 72.65 18.5 74 Q 15.35 75.35 14 78.5 Q 12.65 75.35 9.5 74 Q 12.65 72.65 14 69.5 Z" fill="#E85D9F"/></svg>