<svg xmlns="http://www.w3.org/2000/svg" viewBox="0 0 100 100" role="img" aria-label="flor"><circle cx="50.0" cy="26.0" r="16.1" fill="#FFD9E8"/><circle cx="25.3" cy="44.0" r="16.1" fill="#FFD9E8"/><circle cx="34.7" cy="73.0" r="16.1" fill="#FFD9E8"/><circle cx="65.3" cy="73.0" r="16.1" fill="#FFD9E8"/><circle cx="74.7" cy="44.0" r="16.1" fill="#FFD9E8"/><circle cx="50" cy="52" r="13.5" fill="#E85D9F"/><circle cx="45.04" cy="51" r="1.736" fill="#4A2D57"/><circle cx="54.96" cy="51" r="1.736" fill="#4A2D57"/><circle cx="45.412" cy="50.38" r="0.558" fill="#FFFFFF"/><circle cx="55.332" cy="50.38" r="0.558" fill="#FFFFFF"/><path d="M 47.52 54.1 Q 50 56.58 52.48 54.1" fill="none" stroke="#4A2D57" stroke-width="1.488" stroke-linecap="round"/><circle cx="41.94" cy="54.1" r="1.8599999999999999" fill="#F9A8C7" opacity="0.9"/><circle cx="58.06" cy="54.1" r="1.8599999999999999" fill="#F9A8C7" opacity="0.9"/><ellipse cx="44" cy="30" rx="4" ry="2.5" fill="#FFFFFF" opacity="0.85" transform="rotate(-20 44 30)"/><path d="M 85 25 Q 86.5 28.5 90 30 Q 86.5 31.5 85 35 Q 83.5 31.5 80 30 Q 83.5 28.5 85 25 Z" fill="#9A66D9"/></svg>