<svg xmlns="http://www.w3.org/2000/svg" viewBox="-10 -10 120 120" role="img" aria-label="arroba sticker"><g transform="translate(3,4)"><circle cx="50" cy="50" r="42" fill="#4A2D57" stroke="#4A2D57" stroke-width="7" stroke-linejoin="round"/><ellipse cx="32" cy="26" rx="7" ry="4" fill="#4A2D57" opacity="0.7" transform="rotate(-30 32 26)" stroke="#4A2D57" stroke-width="7" stroke-linejoin="round"/><text x="50" y="66" text-anchor="middle" font-family="Arial Black,Arial" font-size="52" font-weight="900" fill="#4A2D57" stroke="#4A2D57" stroke-width="7" stroke-linejoin="round">@</text><path d="M 86 73 Q 87.5 76.5 91 78 Q 87.5 79.5 86 83 Q 84.5 79.5 81 78 Q 84.5 76.5 86 73 Z" fill="#4A2D57" stroke="#4A2D57" stroke-width="7" stroke-linejoin="round"/></g><g><circle cx="50" cy="50" r="42" fill="#4A2D57" stroke="#4A2D57" stroke-width="7" stroke-linejoin="round"/><ellipse cx="32" cy="26" rx="7" ry="4" fill="#4A2D57" opacity="0.7" transform="rotate(-30 32 26)" stroke="#4A2D57" stroke-width="7" stroke-linejoin="round"/><text x="50" y="66" text-anchor="middle" font-family="Arial Black,Arial" font-size="52" font-weight="900" fill="#4A2D57" stroke="#4A2D57" stroke-width="7" stroke-linejoin="round">@</text><path d="M 86 73 Q 87.5 76.5 91 78 Q 87.5 79.5 86 83 Q 84.5 79.5 81 78 Q 84.5 76.5 86 73 Z" fill="#4A2D57" stroke="#4A2D57" stroke-width="7" stroke-linejoin="round"/></g><circle cx="50" cy="50" r="42" fill="#FFD9E8"/><ellipse cx="32" cy="26" rx="7" ry="4" fill="#FFFFFF" opacity="0.7" transform="rotate(-30 32 26)"/><text x="50" y="66" text-anchor="middle" font-family="Arial Black,Arial" font-size="52" font-weight="900" fill="#4A2D57">@</text><path d="M 86 73 Q 87.5 76.5 91 78 Q 87.5 79.5 86 83 Q 84.5 79.5 81 78 Q 84.5 76.5 86 73 Z" fill="#E85D9F"/></svg>