<svg xmlns="http://www.w3.org/2000/svg" viewBox="-10 -10 120 120" role="img" aria-label="estrella-fugaz sticker"><g transform="translate(3,4)"><path d="M 6 30 Q 26 32 40 28" fill="#4A2D57" stroke="#4A2D57" stroke-width="13.0" stroke-linecap="round"/><path d="M 4 48 Q 24 50 38 46" fill="#4A2D57" stroke="#4A2D57" stroke-width="13.0" stroke-linecap="round"/><path d="M 10 66 Q 28 66 40 60" fill="#4A2D57" stroke="#4A2D57" stroke-width="13.0" stroke-linecap="round"/><polygon points="66.0,14.0 59.5,31.1 41.3,32.0 55.5,43.4 50.7,61.0 66.0,51.0 81.3,61.0 76.5,43.4 90.7,32.0 72.5,31.1" fill="#4A2D57" stroke="#4A2D57" stroke-width="15.0" stroke-linejoin="round"/><ellipse cx="58" cy="32" rx="4" ry="2.5" fill="#4A2D57" opacity="0.85" transform="rotate(-30 58 32)" stroke="#4A2D57" stroke-width="7" stroke-linejoin="round"/><path d="M 14 77 Q 15.5 80.5 19 82 Q 15.5 83.5 14 87 Q 12.5 83.5 9 82 Q 12.5 80.5 14 77 Z" fill="#4A2D57" stroke="#4A2D57" stroke-width="7" stroke-linejoin="round"/><path d="M 30 74.5 Q 31.05 76.95 33.5 78 Q 31.05 79.05 30 81.5 Q 28.95 79.05 26.5 78 Q 28.95 76.95 30 74.5 Z" fill="#4A2D57" stroke="#4A2D57" stroke-width="7" stroke-linejoin="round"/><circle cx="6" cy="14" r="2.2" fill="#4A2D57" stroke="#4A2D57" stroke-width="7" stroke-linejoin="round"/></g><g><path d="M 6 30 Q 26 32 40 28" fill="#4A2D57" stroke="#4A2D57" stroke-width="13.0" stroke-linecap="round"/><path d="M 4 48 Q 24 50 38 46" fill="#4A2D57" stroke="#4A2D57" stroke-width="13.0" stroke-linecap="round"/><path d="M 10 66 Q 28 66 40 60" fill="#4A2D57" stroke="#4A2D57" stroke-width="13.0" stroke-linecap="round"/><polygon points="66.0,14.0 59.5,31.1 41.3,32.0 55.5,43.4 50.7,61.0 66.0,51.0 81.3,61.0 76.5,43.4 90.7,32.0 72.5,31.1" fill="#4A2D57" stroke="#4A2D57" stroke-width="15.0" stroke-linejoin="round"/><ellipse cx="58" cy="32" rx="4" ry="2.5" fill="#4A2D57" opacity="0.85" transform="rotate(-30 58 32)" stroke="#4A2D57" stroke-width="7" stroke-linejoin="round"/><path d="M 14 77 Q 15.5 80.5 19 82 Q 15.5 83.5 14 87 Q 12.5 83.5 9 82 Q 12.5 80.5 14 77 Z" fill="#4A2D57" stroke="#4A2D57" stroke-width="7" stroke-linejoin="round"/><path d="M 30 74.5 Q 31.05 76.95 33.5 78 Q 31.05 79.05 30 81.5 Q 28.95 79.05 26.5 78 Q 28.95 76.95 30 74.5 Z" fill="#4A2D57" stroke="#4A2D57" stroke-width="7" stroke-linejoin="round"/><circle cx="6" cy="14" r="2.2" fill="#4A2D57" stroke="#4A2D57" stroke-width="7" stroke-linejoin="round"/></g><path d="M 6 30 Q 26 32 40 28" fill="none" stroke="#9A66D9" stroke-width="6" stroke-linecap="round"/><path d="M 4 48 Q 24 50 38 46" fill="none" stroke="#E85D9F" stroke-width="6" stroke-linecap="round"/><path d="M 10 66 Q 28 66 40 60" fill="none" stroke="#FFD9E8" stroke-width="6" stroke-linecap="round"/><polygon points="66.0,14.0 59.5,31.1 41.3,32.0 55.5,43.4 50.7,61.0 66.0,51.0 81.3,61.0 76.5,43.4 90.7,32.0 72.5,31.1" fill="#E85D9F" stroke="#E85D9F" stroke-width="8" stroke-linejoin="round"/><ellipse cx="58" cy="32" rx="4" ry="2.5" fill="#FFFFFF" opacity="0.85" transform="rotate(-30 58 32)"/><path d="M 14 77 Q 15.5 80.5 19 82 Q 15.5 83.5 14 87 Q 12.5 83.5 9 82 Q 12.5 80.5 14 77 Z" fill="#9A66D9"/><path d="M 30 74.5 Q 31.05 76.95 33.5 78 Q 31.05 79.05 30 81.5 Q 28.95 79.05 26.5 78 Q 28.95 76.95 30 74.5 Z" fill="#FFD9E8"/><circle cx="6" cy="14" r="2.2" fill="#E85D9F"/></svg>