<svg xmlns="http://www.w3.org/2000/svg" width="320" height="140" viewBox="0 0 160 70" fill="none">
  <defs><filter id="d" x="-10%" y="-15%" width="120%" height="140%"><feDropShadow dx="0" dy="4" stdDeviation="3" flood-color="#1C1B1F" flood-opacity=".12"/></filter></defs>
  <g filter="url(#d)">
    <rect width="160" height="70" rx="3" fill="#FFFBFC" stroke="#1C1B1F" stroke-width="1.5"/>
    <path d="M108 0v70" stroke="#E7E3DF" stroke-dasharray="3 3"/>
    <text x="10" y="18" fill="#9A66D9" font-family="ui-monospace,monospace" font-size="8" font-weight="700">ELARA AIR</text>
    <text x="10" y="38" fill="#1C1B1F" font-family="ui-monospace,monospace" font-size="13" font-weight="700">ZRH → MAD</text>
    <text x="10" y="54" fill="#6E6A66" font-family="ui-monospace,monospace" font-size="8">14 MAY 25</text>
    <rect x="118" y="14" width="30" height="42" fill="#1C1B1F"/>
    <g fill="#FFFBFC">
      <rect x="121" y="17" width="3" height="10"/><rect x="126" y="17" width="2" height="14"/><rect x="130" y="17" width="3" height="8"/><rect x="135" y="17" width="2" height="16"/><rect x="139" y="17" width="3" height="11"/><rect x="144" y="17" width="2" height="18"/>
      <rect x="121" y="36" width="2" height="14"/><rect x="125" y="36" width="3" height="10"/><rect x="130" y="36" width="2" height="16"/><rect x="134" y="36" width="3" height="12"/><rect x="139" y="36" width="2" height="15"/><rect x="143" y="36" width="3" height="9"/>
    </g>
  </g>
</svg>
